<svg xmlns="http://www.w3.org/2000/svg" version="1.1" xmlns:xlink="http://www.w3.org/1999/xlink" xmlns:svgjs="http://svgjs.dev/svgjs" width="1500" height="1500" viewBox="0 0 1500 1500"><rect width="1500" height="1500" fill="#ffffff"></rect><g transform="matrix(0.6666666666666666,0,0,0.6666666666666666,249.39393939393938,595.3215462656555)"><svg viewBox="0 0 396 123" data-background-color="#efefef" preserveAspectRatio="xMidYMid meet" height="465" width="1500" xmlns="http://www.w3.org/2000/svg" xmlns:xlink="http://www.w3.org/1999/xlink"><g id="tight-bounds" transform="matrix(1,0,0,1,0.2400000000000091,-0.127581260243943)"><svg viewBox="0 0 395.52 123.25516252048789" height="123.25516252048789" width="395.52"><g><svg viewBox="0 0 395.52 123.25516252048789" height="123.25516252048789" width="395.52"><g><svg viewBox="0 0 395.52 123.25516252048789" height="123.25516252048789" width="395.52"><g id="textblocktransform"><svg viewBox="0 0 395.52 123.25516252048789" height="123.25516252048789" width="395.52" id="textblock"><g><svg viewBox="0 0 395.52 85.31531301956326" height="85.31531301956326" width="395.52"><rect width="395.52" height="85.31531301956326" x="0" y="0" opacity="1" fill="#000000" data-fill-palette-color="tertiary"></rect><g transform="matrix(1,0,0,1,23.461705032,23.461705032)"><svg width="348.596589936" viewBox="-0.7 -40.2 369.07 40.650000000000006" height="38.39190295556326" data-palette-color="#efefef"><path d="M29.7 0L26.95-6.8 12.15-6.8 9.4 0-0.7 0 14.75-35 24.5-35 40 0 29.7 0ZM15.05-14.1L24.05-14.1 19.55-25.3 15.05-14.1ZM61.4-37.1L70.9-37.1 70.9 0 61.85 0 61.85-2.7Q59.2 0.45 53.9 0.45L53.9 0.45Q50.2 0.45 47.15-1.28 44.1-3 42.32-6.2 40.55-9.4 40.55-13.6L40.55-13.6Q40.55-17.8 42.32-20.98 44.1-24.15 47.15-25.85 50.2-27.55 53.9-27.55L53.9-27.55Q58.75-27.55 61.4-24.75L61.4-24.75 61.4-37.1ZM55.9-7.1Q58.35-7.1 59.95-8.83 61.55-10.55 61.55-13.6L61.55-13.6Q61.55-16.6 59.97-18.3 58.4-20 55.9-20L55.9-20Q53.4-20 51.8-18.3 50.2-16.6 50.2-13.6L50.2-13.6Q50.2-10.55 51.8-8.83 53.4-7.1 55.9-7.1L55.9-7.1ZM88.55-27.55Q95.3-27.55 98.85-24.48 102.4-21.4 102.4-15.05L102.4-15.05 102.4 0 93.55 0 93.55-3.5Q91.5 0.45 85.55 0.45L85.55 0.45Q82.4 0.45 80.1-0.65 77.8-1.75 76.62-3.63 75.45-5.5 75.45-7.9L75.45-7.9Q75.45-11.75 78.4-13.88 81.35-16 87.5-16L87.5-16 92.9-16Q92.65-20.3 87.15-20.3L87.15-20.3Q85.2-20.3 83.2-19.68 81.2-19.05 79.8-17.95L79.8-17.95 76.6-24.4Q78.85-25.9 82.07-26.73 85.3-27.55 88.55-27.55L88.55-27.55ZM88.2-5.55Q89.85-5.55 91.1-6.35 92.35-7.15 92.9-8.7L92.9-8.7 92.9-11.05 88.8-11.05Q84.65-11.05 84.65-8.3L84.65-8.3Q84.65-7.05 85.6-6.3 86.55-5.55 88.2-5.55L88.2-5.55ZM143.69-27.55Q148.69-27.55 151.67-24.55 154.64-21.55 154.64-15.5L154.64-15.5 154.64 0 145.14 0 145.14-13.95Q145.14-16.8 144.07-18.15 142.99-19.5 141.04-19.5L141.04-19.5Q138.89-19.5 137.59-18 136.29-16.5 136.29-13.45L136.29-13.45 136.29 0 126.79 0 126.79-13.95Q126.79-19.5 122.69-19.5L122.69-19.5Q120.49-19.5 119.19-18 117.89-16.5 117.89-13.45L117.89-13.45 117.89 0 108.39 0 108.39-27.1 117.44-27.1 117.44-24.25Q118.94-25.9 121.02-26.73 123.09-27.55 125.54-27.55L125.54-27.55Q128.39-27.55 130.64-26.5 132.89-25.45 134.29-23.3L134.29-23.3Q135.89-25.35 138.34-26.45 140.79-27.55 143.69-27.55L143.69-27.55ZM203.09-27.35L185.54-27.35 185.54-19.65 200.99-19.65 200.99-12 185.54-12 185.54 0 175.64 0 175.64-35 203.09-35 203.09-27.35ZM206.79 0L206.79-27.1 216.29-27.1 216.29 0 206.79 0ZM211.54-30.1Q208.94-30.1 207.34-31.55 205.74-33 205.74-35.15L205.74-35.15Q205.74-37.3 207.34-38.75 208.94-40.2 211.54-40.2L211.54-40.2Q214.14-40.2 215.74-38.83 217.34-37.45 217.34-35.3L217.34-35.3Q217.34-33.05 215.74-31.58 214.14-30.1 211.54-30.1L211.54-30.1ZM231.48-23.85Q232.93-25.7 235.26-26.63 237.58-27.55 240.58-27.55L240.58-27.55 240.58-19Q239.28-19.15 238.43-19.15L238.43-19.15Q235.38-19.15 233.66-17.5 231.93-15.85 231.93-12.45L231.93-12.45 231.93 0 222.43 0 222.43-27.1 231.48-27.1 231.48-23.85ZM263.53-37.1L273.03-37.1 273.03 0 263.98 0 263.98-2.7Q261.33 0.45 256.03 0.45L256.03 0.45Q252.33 0.45 249.28-1.28 246.23-3 244.46-6.2 242.68-9.4 242.68-13.6L242.68-13.6Q242.68-17.8 244.46-20.98 246.23-24.15 249.28-25.85 252.33-27.55 256.03-27.55L256.03-27.55Q260.88-27.55 263.53-24.75L263.53-24.75 263.53-37.1ZM258.03-7.1Q260.48-7.1 262.08-8.83 263.68-10.55 263.68-13.6L263.68-13.6Q263.68-16.6 262.11-18.3 260.53-20 258.03-20L258.03-20Q255.53-20 253.93-18.3 252.33-16.6 252.33-13.6L252.33-13.6Q252.33-10.55 253.93-8.83 255.53-7.1 258.03-7.1L258.03-7.1ZM290.68-27.55Q297.43-27.55 300.98-24.48 304.53-21.4 304.53-15.05L304.53-15.05 304.53 0 295.68 0 295.68-3.5Q293.63 0.45 287.68 0.45L287.68 0.45Q284.53 0.45 282.23-0.65 279.93-1.75 278.75-3.63 277.58-5.5 277.58-7.9L277.58-7.9Q277.58-11.75 280.53-13.88 283.48-16 289.63-16L289.63-16 295.03-16Q294.78-20.3 289.28-20.3L289.28-20.3Q287.33-20.3 285.33-19.68 283.33-19.05 281.93-17.95L281.93-17.95 278.73-24.4Q280.98-25.9 284.2-26.73 287.43-27.55 290.68-27.55L290.68-27.55ZM290.33-5.55Q291.98-5.55 293.23-6.35 294.48-7.15 295.03-8.7L295.03-8.7 295.03-11.05 290.93-11.05Q286.78-11.05 286.78-8.3L286.78-8.3Q286.78-7.05 287.73-6.3 288.68-5.55 290.33-5.55L290.33-5.55ZM329.53-27.1L339.03-27.1 339.03 0 329.98 0 329.98-2.9Q328.48-1.25 326.38-0.4 324.28 0.45 321.93 0.45L321.93 0.45Q316.68 0.45 313.55-2.65 310.43-5.75 310.43-11.95L310.43-11.95 310.43-27.1 319.93-27.1 319.93-13.5Q319.93-10.45 321.08-9.05 322.23-7.65 324.43-7.65L324.43-7.65Q326.68-7.65 328.1-9.22 329.53-10.8 329.53-14.05L329.53-14.05 329.53-27.1ZM354.97 0.45Q351.57 0.45 348.27-0.33 344.97-1.1 342.97-2.35L342.97-2.35 345.82-8.85Q347.67-7.7 350.22-7.03 352.77-6.35 355.27-6.35L355.27-6.35Q357.57-6.35 358.55-6.83 359.52-7.3 359.52-8.2L359.52-8.2Q359.52-9.1 358.35-9.47 357.17-9.85 354.62-10.2L354.62-10.2Q351.37-10.6 349.1-11.25 346.82-11.9 345.17-13.65 343.52-15.4 343.52-18.55L343.52-18.55Q343.52-21.15 345.07-23.18 346.62-25.2 349.6-26.38 352.57-27.55 356.72-27.55L356.72-27.55Q359.67-27.55 362.57-26.95 365.47-26.35 367.42-25.25L367.42-25.25 364.57-18.8Q360.97-20.8 356.77-20.8L356.77-20.8Q354.52-20.8 353.47-20.28 352.42-19.75 352.42-18.9L352.42-18.9Q352.42-17.95 353.57-17.57 354.72-17.2 357.37-16.8L357.37-16.8Q360.72-16.3 362.92-15.65 365.12-15 366.75-13.28 368.37-11.55 368.37-8.45L368.37-8.45Q368.37-5.9 366.82-3.88 365.27-1.85 362.25-0.7 359.22 0.45 354.97 0.45L354.97 0.45Z" opacity="1" transform="matrix(1,0,0,1,0,0)" fill="#ffffff" class="wordmark-text-0" data-fill-palette-color="quaternary" id="text-0"></path></svg></g></svg></g><g transform="matrix(1,0,0,1,94.9248,97.04616553556326)"><svg viewBox="0 0 300.5952 26.208996984924617" height="26.208996984924617" width="300.5952"><g transform="matrix(1,0,0,1,0,0)"><svg width="300.5952" viewBox="4.15 -39.35 567.1 49.45" height="26.208996984924617" data-palette-color="#d94e28"><path d="M4.15 0L4.15-35 20.05-35Q25.75-35 30.13-32.83 34.5-30.65 36.93-26.7 39.35-22.75 39.35-17.5L39.35-17.5Q39.35-12.25 36.93-8.3 34.5-4.35 30.13-2.18 25.75 0 20.05 0L20.05 0 4.15 0ZM12.25-6.65L19.65-6.65Q24.9-6.65 28.03-9.58 31.15-12.5 31.15-17.5L31.15-17.5Q31.15-22.5 28.03-25.43 24.9-28.35 19.65-28.35L19.65-28.35 12.25-28.35 12.25-6.65ZM58.45-5.85Q60.55-5.85 62.17-6.48 63.8-7.1 65.2-8.45L65.2-8.45 69.35-3.95Q65.55 0.4 58.25 0.4L58.25 0.4Q53.7 0.4 50.2-1.38 46.7-3.15 44.8-6.3 42.9-9.45 42.9-13.45L42.9-13.45Q42.9-17.4 44.77-20.58 46.65-23.75 49.92-25.53 53.2-27.3 57.3-27.3L57.3-27.3Q61.15-27.3 64.3-25.68 67.45-24.05 69.32-20.98 71.2-17.9 71.2-13.7L71.2-13.7 51.3-9.85Q52.15-7.85 53.97-6.85 55.8-5.85 58.45-5.85L58.45-5.85ZM57.3-21.4Q54.35-21.4 52.5-19.5 50.65-17.6 50.55-14.25L50.55-14.25 63.65-16.8Q63.1-18.9 61.4-20.15 59.7-21.4 57.3-21.4L57.3-21.4ZM85.5 0.4Q82.15 0.4 78.95-0.43 75.75-1.25 73.85-2.5L73.85-2.5 76.45-8.1Q78.25-6.95 80.8-6.23 83.35-5.5 85.8-5.5L85.8-5.5Q90.75-5.5 90.75-7.95L90.75-7.95Q90.75-9.1 89.4-9.6 88.05-10.1 85.25-10.45L85.25-10.45Q81.95-10.95 79.8-11.6 77.65-12.25 76.07-13.9 74.5-15.55 74.5-18.6L74.5-18.6Q74.5-21.15 75.97-23.13 77.45-25.1 80.27-26.2 83.1-27.3 86.95-27.3L86.95-27.3Q89.8-27.3 92.62-26.68 95.45-26.05 97.3-24.95L97.3-24.95 94.7-19.4Q91.15-21.4 86.95-21.4L86.95-21.4Q84.45-21.4 83.2-20.7 81.95-20 81.95-18.9L81.95-18.9Q81.95-17.65 83.3-17.15 84.65-16.65 87.6-16.2L87.6-16.2Q90.9-15.65 93-15.03 95.1-14.4 96.65-12.75 98.2-11.1 98.2-8.15L98.2-8.15Q98.2-5.65 96.7-3.7 95.2-1.75 92.32-0.68 89.45 0.4 85.5 0.4L85.5 0.4ZM102.99 0L102.99-26.9 110.79-26.9 110.79 0 102.99 0ZM106.89-30.65Q104.74-30.65 103.39-31.9 102.04-33.15 102.04-35L102.04-35Q102.04-36.85 103.39-38.1 104.74-39.35 106.89-39.35L106.89-39.35Q109.04-39.35 110.39-38.15 111.74-36.95 111.74-35.15L111.74-35.15Q111.74-33.2 110.39-31.93 109.04-30.65 106.89-30.65L106.89-30.65ZM138.39-26.9L145.79-26.9 145.79-4.5Q145.79 2.9 141.94 6.5 138.09 10.1 130.69 10.1L130.69 10.1Q126.79 10.1 123.29 9.15 119.79 8.2 117.49 6.4L117.49 6.4 120.59 0.8Q122.29 2.2 124.89 3.03 127.49 3.85 130.09 3.85L130.09 3.85Q134.14 3.85 136.06 2.02 137.99 0.2 137.99-3.5L137.99-3.5 137.99-4.65Q134.94-1.3 129.49-1.3L129.49-1.3Q125.79-1.3 122.72-2.93 119.64-4.55 117.84-7.5 116.04-10.45 116.04-14.3L116.04-14.3Q116.04-18.15 117.84-21.1 119.64-24.05 122.72-25.68 125.79-27.3 129.49-27.3L129.49-27.3Q135.34-27.3 138.39-23.45L138.39-23.45 138.39-26.9ZM131.04-7.7Q134.14-7.7 136.12-9.53 138.09-11.35 138.09-14.3L138.09-14.3Q138.09-17.25 136.12-19.07 134.14-20.9 131.04-20.9L131.04-20.9Q127.94-20.9 125.94-19.07 123.94-17.25 123.94-14.3L123.94-14.3Q123.94-11.35 125.94-9.53 127.94-7.7 131.04-7.7L131.04-7.7ZM169.39-27.3Q174.39-27.3 177.46-24.3 180.54-21.3 180.54-15.4L180.54-15.4 180.54 0 172.74 0 172.74-14.2Q172.74-17.4 171.34-18.98 169.94-20.55 167.29-20.55L167.29-20.55Q164.34-20.55 162.59-18.73 160.84-16.9 160.84-13.3L160.84-13.3 160.84 0 153.04 0 153.04-26.9 160.49-26.9 160.49-23.75Q162.04-25.45 164.34-26.38 166.64-27.3 169.39-27.3L169.39-27.3ZM201.44-5.85Q203.54-5.85 205.16-6.48 206.79-7.1 208.19-8.45L208.19-8.45 212.34-3.95Q208.54 0.4 201.24 0.4L201.24 0.4Q196.69 0.4 193.19-1.38 189.69-3.15 187.79-6.3 185.89-9.45 185.89-13.45L185.89-13.45Q185.89-17.4 187.76-20.58 189.64-23.75 192.91-25.53 196.19-27.3 200.29-27.3L200.29-27.3Q204.14-27.3 207.29-25.68 210.44-24.05 212.31-20.98 214.19-17.9 214.19-13.7L214.19-13.7 194.29-9.85Q195.14-7.85 196.96-6.85 198.79-5.85 201.44-5.85L201.44-5.85ZM200.29-21.4Q197.34-21.4 195.49-19.5 193.64-17.6 193.54-14.25L193.54-14.25 206.64-16.8Q206.09-18.9 204.39-20.15 202.69-21.4 200.29-21.4L200.29-21.4ZM226.88-23.35Q228.28-25.3 230.66-26.3 233.03-27.3 236.13-27.3L236.13-27.3 236.13-20.1Q234.83-20.2 234.38-20.2L234.38-20.2Q231.03-20.2 229.13-18.32 227.23-16.45 227.23-12.7L227.23-12.7 227.23 0 219.43 0 219.43-26.9 226.88-26.9 226.88-23.35ZM286.83-4.35L282.58 0.6 278.38-3.3Q273.38 0.6 266.68 0.6L266.68 0.6Q262.88 0.6 259.83-0.63 256.78-1.85 255.05-4.05 253.33-6.25 253.33-9L253.33-9Q253.33-12.25 255.15-14.73 256.98-17.2 261.03-19.45L261.03-19.45Q259.13-21.4 258.28-23.18 257.43-24.95 257.43-26.85L257.43-26.85Q257.43-29.4 258.78-31.35 260.13-33.3 262.6-34.38 265.08-35.45 268.33-35.45L268.33-35.45Q272.88-35.45 275.63-33.27 278.38-31.1 278.38-27.4L278.38-27.4Q278.38-24.7 276.75-22.6 275.13-20.5 271.53-18.55L271.53-18.55 277.93-12.6Q279.08-15 279.68-18.05L279.68-18.05 285.93-16.1Q284.93-11.45 282.73-8.15L282.73-8.15 286.83-4.35ZM268.33-30.15Q266.58-30.15 265.55-29.25 264.53-28.35 264.53-26.95L264.53-26.95Q264.53-25.9 265.08-24.98 265.63-24.05 267.23-22.5L267.23-22.5Q269.78-23.85 270.78-24.93 271.78-26 271.78-27.25L271.78-27.25Q271.78-28.55 270.88-29.35 269.98-30.15 268.33-30.15L268.33-30.15ZM267.23-5.5Q270.88-5.5 273.78-7.55L273.78-7.55 265.33-15.45Q262.98-14.1 261.98-12.8 260.98-11.5 260.98-9.85L260.98-9.85Q260.98-7.9 262.68-6.7 264.38-5.5 267.23-5.5L267.23-5.5ZM306.22 0L306.22-35 322.12-35Q327.82-35 332.2-32.83 336.57-30.65 339-26.7 341.42-22.75 341.42-17.5L341.42-17.5Q341.42-12.25 339-8.3 336.57-4.35 332.2-2.18 327.82 0 322.12 0L322.12 0 306.22 0ZM314.32-6.65L321.72-6.65Q326.97-6.65 330.1-9.58 333.22-12.5 333.22-17.5L333.22-17.5Q333.22-22.5 330.1-25.43 326.97-28.35 321.72-28.35L321.72-28.35 314.32-28.35 314.32-6.65ZM360.52-5.85Q362.62-5.85 364.25-6.48 365.87-7.1 367.27-8.45L367.27-8.45 371.42-3.95Q367.62 0.4 360.32 0.4L360.32 0.4Q355.77 0.4 352.27-1.38 348.77-3.15 346.87-6.3 344.97-9.45 344.97-13.45L344.97-13.45Q344.97-17.4 346.85-20.58 348.72-23.75 352-25.53 355.27-27.3 359.37-27.3L359.37-27.3Q363.22-27.3 366.37-25.68 369.52-24.05 371.4-20.98 373.27-17.9 373.27-13.7L373.27-13.7 353.37-9.85Q354.22-7.85 356.05-6.85 357.87-5.85 360.52-5.85L360.52-5.85ZM359.37-21.4Q356.42-21.4 354.57-19.5 352.72-17.6 352.62-14.25L352.62-14.25 365.72-16.8Q365.17-18.9 363.47-20.15 361.77-21.4 359.37-21.4L359.37-21.4ZM397.22-26.9L404.72-26.9 393.37 0 385.32 0 374.02-26.9 382.07-26.9 389.52-8.6 397.22-26.9ZM420.72-5.85Q422.82-5.85 424.44-6.48 426.07-7.1 427.47-8.45L427.47-8.45 431.62-3.95Q427.82 0.4 420.52 0.4L420.52 0.4Q415.97 0.4 412.47-1.38 408.97-3.15 407.07-6.3 405.17-9.45 405.17-13.45L405.17-13.45Q405.17-17.4 407.04-20.58 408.92-23.75 412.19-25.53 415.47-27.3 419.57-27.3L419.57-27.3Q423.42-27.3 426.57-25.68 429.72-24.05 431.59-20.98 433.47-17.9 433.47-13.7L433.47-13.7 413.57-9.85Q414.42-7.85 416.24-6.85 418.07-5.85 420.72-5.85L420.72-5.85ZM419.57-21.4Q416.62-21.4 414.77-19.5 412.92-17.6 412.82-14.25L412.82-14.25 425.92-16.8Q425.37-18.9 423.67-20.15 421.97-21.4 419.57-21.4L419.57-21.4ZM448.36 0.4Q443.81 0.4 441.26-2.02 438.71-4.45 438.71-8.9L438.71-8.9 438.71-37.1 446.51-37.1 446.51-9.35Q446.51-7.65 447.39-6.73 448.26-5.8 449.86-5.8L449.86-5.8Q450.46-5.8 451.09-5.95 451.71-6.1 452.06-6.3L452.06-6.3 452.41-0.25Q450.46 0.4 448.36 0.4L448.36 0.4ZM468.56 0.4Q464.31 0.4 460.94-1.38 457.56-3.15 455.66-6.3 453.76-9.45 453.76-13.45L453.76-13.45Q453.76-17.45 455.66-20.6 457.56-23.75 460.94-25.53 464.31-27.3 468.56-27.3L468.56-27.3Q472.81-27.3 476.16-25.53 479.51-23.75 481.41-20.6 483.31-17.45 483.31-13.45L483.31-13.45Q483.31-9.45 481.41-6.3 479.51-3.15 476.16-1.38 472.81 0.4 468.56 0.4L468.56 0.4ZM468.56-6Q471.56-6 473.49-8.03 475.41-10.05 475.41-13.45L475.41-13.45Q475.41-16.85 473.49-18.88 471.56-20.9 468.56-20.9L468.56-20.9Q465.56-20.9 463.61-18.88 461.66-16.85 461.66-13.45L461.66-13.45Q461.66-10.05 463.61-8.03 465.56-6 468.56-6L468.56-6ZM504.41-27.3Q508.16-27.3 511.23-25.58 514.31-23.85 516.06-20.73 517.81-17.6 517.81-13.45L517.81-13.45Q517.81-9.3 516.06-6.18 514.31-3.05 511.23-1.33 508.16 0.4 504.41 0.4L504.41 0.4Q499.26 0.4 496.31-2.85L496.31-2.85 496.31 9.7 488.51 9.7 488.51-26.9 495.96-26.9 495.96-23.8Q498.86-27.3 504.41-27.3L504.41-27.3ZM503.06-6Q506.06-6 507.98-8.03 509.91-10.05 509.91-13.45L509.91-13.45Q509.91-16.85 507.98-18.88 506.06-20.9 503.06-20.9L503.06-20.9Q500.06-20.9 498.13-18.88 496.21-16.85 496.21-13.45L496.21-13.45Q496.21-10.05 498.13-8.03 500.06-6 503.06-6L503.06-6ZM536.55-5.85Q538.65-5.85 540.28-6.48 541.9-7.1 543.3-8.45L543.3-8.45 547.45-3.95Q543.65 0.4 536.36 0.4L536.36 0.4Q531.8 0.4 528.3-1.38 524.8-3.15 522.9-6.3 521-9.45 521-13.45L521-13.45Q521-17.4 522.88-20.58 524.75-23.75 528.03-25.53 531.3-27.3 535.4-27.3L535.4-27.3Q539.25-27.3 542.4-25.68 545.55-24.05 547.43-20.98 549.3-17.9 549.3-13.7L549.3-13.7 529.4-9.85Q530.25-7.85 532.08-6.85 533.9-5.85 536.55-5.85L536.55-5.85ZM535.4-21.4Q532.45-21.4 530.61-19.5 528.75-17.6 528.65-14.25L528.65-14.25 541.75-16.8Q541.2-18.9 539.5-20.15 537.8-21.4 535.4-21.4L535.4-21.4ZM562-23.35Q563.4-25.3 565.78-26.3 568.15-27.3 571.25-27.3L571.25-27.3 571.25-20.1Q569.95-20.2 569.5-20.2L569.5-20.2Q566.15-20.2 564.25-18.32 562.35-16.45 562.35-12.7L562.35-12.7 562.35 0 554.55 0 554.55-26.9 562-26.9 562-23.35Z" opacity="1" transform="matrix(1,0,0,1,0,0)" fill="#000000" class="slogan-text-1" data-fill-palette-color="secondary" id="text-1"></path></svg></g></svg></g></svg></g></svg></g></svg></g><defs></defs></svg><rect width="395.52" height="123.25516252048789" fill="none" stroke="none" visibility="hidden"></rect></g></svg></g></svg>